<svg width="264" height="485" viewBox="0 0 264 485" fill="none" xmlns="http://www.w3.org/2000/svg">
<path d="M238.271 192.454L215.036 202.853" stroke="#14141B" stroke-width="4" stroke-linecap="round" stroke-linejoin="round"/>
<path d="M231.853 209.271L221.454 186.036" stroke="#14141B" stroke-width="4" stroke-linecap="round" stroke-linejoin="round"/>
<path d="M115 345L97 363" stroke="#14141B" stroke-width="4" stroke-linecap="round" stroke-linejoin="round"/>
<path d="M115 363L97 345" stroke="#14141B" stroke-width="4" stroke-linecap="round" stroke-linejoin="round"/>
<path d="M229.445 11.1806L256.128 18.6654L236.305 38.031L229.445 11.1806Z" fill="#14141B"/>
<path d="M86.4855 214.616L112.928 206.32L106.891 233.368L86.4855 214.616Z" fill="#14141B"/>
<path d="M41.3065 87.4096L11.4097 76L8.67844e-05 105.897L29.8969 117.306L41.3065 87.4096Z" fill="#14141B"/>
<path d="M224 322H192V354H224V322Z" fill="#14141B"/>
<rect x="174.442" y="94" width="32" height="32" transform="rotate(6.17539 174.442 94)" fill="#14141B"/>
<rect x="99.0635" y="441" width="32" height="32" transform="rotate(28.0819 99.0635 441)" fill="#14141B"/>
<circle cx="106" cy="16" r="16" fill="#14141B"/>
<circle cx="16" cy="315" r="16" fill="#14141B"/>
</svg>
