<svg width="135" height="20" viewBox="0 0 135 20" fill="none" xmlns="http://www.w3.org/2000/svg">
<path d="M11.976 16.024H5.688L4.68 19H0.384L6.48 2.152H11.232L17.328 19H12.984L11.976 16.024ZM10.92 12.856L8.832 6.688L6.768 12.856H10.92ZM25.2073 15.16L28.1113 5.608H32.4793L27.7273 19H22.6633L17.9113 5.608H22.3033L25.2073 15.16ZM42.3668 5.464C43.9348 5.464 45.1828 5.976 46.1108 7C47.0548 8.008 47.5268 9.4 47.5268 11.176V19H43.4468V11.728C43.4468 10.832 43.2148 10.136 42.7508 9.64C42.2868 9.144 41.6628 8.896 40.8788 8.896C40.0948 8.896 39.4708 9.144 39.0068 9.64C38.5428 10.136 38.3108 10.832 38.3108 11.728V19H34.2068V5.608H38.3108V7.384C38.7268 6.792 39.2868 6.328 39.9908 5.992C40.6948 5.64 41.4868 5.464 42.3668 5.464ZM63.0026 12.088C63.0026 12.472 62.9786 12.872 62.9306 13.288H53.6426C53.7066 14.12 53.9706 14.76 54.4346 15.208C54.9146 15.64 55.4986 15.856 56.1866 15.856C57.2106 15.856 57.9226 15.424 58.3226 14.56H62.6906C62.4666 15.44 62.0586 16.232 61.4666 16.936C60.8906 17.64 60.1626 18.192 59.2826 18.592C58.4026 18.992 57.4186 19.192 56.3306 19.192C55.0186 19.192 53.8506 18.912 52.8266 18.352C51.8026 17.792 51.0026 16.992 50.4266 15.952C49.8506 14.912 49.5626 13.696 49.5626 12.304C49.5626 10.912 49.8426 9.696 50.4026 8.656C50.9786 7.616 51.7786 6.816 52.8026 6.256C53.8266 5.696 55.0026 5.416 56.3306 5.416C57.6266 5.416 58.7786 5.688 59.7866 6.232C60.7946 6.776 61.5786 7.552 62.1386 8.56C62.7146 9.568 63.0026 10.744 63.0026 12.088ZM58.8026 11.008C58.8026 10.304 58.5626 9.744 58.0826 9.328C57.6026 8.912 57.0026 8.704 56.2826 8.704C55.5946 8.704 55.0106 8.904 54.5306 9.304C54.0666 9.704 53.7786 10.272 53.6666 11.008H58.8026ZM69.2717 7.84C69.7517 7.104 70.3517 6.528 71.0717 6.112C71.7917 5.68 72.5917 5.464 73.4717 5.464V9.808H72.3437C71.3197 9.808 70.5517 10.032 70.0397 10.48C69.5277 10.912 69.2717 11.68 69.2717 12.784V19H65.1677V5.608H69.2717V7.84ZM90.6158 2.272V14.632C90.6158 16.008 90.1918 17.112 89.3438 17.944C88.4958 18.76 87.3758 19.168 85.9838 19.168C84.5758 19.168 83.4478 18.752 82.5998 17.92C81.7518 17.072 81.3278 15.92 81.3278 14.464H83.5117C83.5278 15.28 83.7358 15.944 84.1358 16.456C84.5518 16.968 85.1678 17.224 85.9838 17.224C86.7998 17.224 87.4078 16.984 87.8078 16.504C88.2078 16.008 88.4078 15.384 88.4078 14.632V2.272H90.6158ZM100.654 19.216C99.4223 19.216 98.3023 18.936 97.2943 18.376C96.3023 17.816 95.5183 17.024 94.9423 16C94.3823 14.96 94.1023 13.76 94.1023 12.4C94.1023 11.056 94.3903 9.872 94.9663 8.848C95.5583 7.808 96.3583 7.016 97.3663 6.472C98.3743 5.912 99.5023 5.632 100.75 5.632C101.998 5.632 103.126 5.912 104.134 6.472C105.142 7.016 105.934 7.8 106.51 8.824C107.102 9.848 107.398 11.04 107.398 12.4C107.398 13.76 107.094 14.96 106.486 16C105.894 17.024 105.086 17.816 104.062 18.376C103.038 18.936 101.902 19.216 100.654 19.216ZM100.654 17.296C101.438 17.296 102.174 17.112 102.862 16.744C103.55 16.376 104.102 15.824 104.518 15.088C104.95 14.352 105.166 13.456 105.166 12.4C105.166 11.344 104.958 10.448 104.542 9.712C104.126 8.976 103.582 8.432 102.91 8.08C102.238 7.712 101.51 7.528 100.726 7.528C99.9263 7.528 99.1903 7.712 98.5183 8.08C97.8623 8.432 97.3343 8.976 96.9343 9.712C96.5343 10.448 96.3343 11.344 96.3343 12.4C96.3343 13.472 96.5263 14.376 96.9103 15.112C97.3103 15.848 97.8383 16.4 98.4943 16.768C99.1503 17.12 99.8703 17.296 100.654 17.296ZM114.926 19.216C113.918 19.216 113.014 19.048 112.214 18.712C111.414 18.36 110.782 17.88 110.318 17.272C109.854 16.648 109.598 15.936 109.55 15.136H111.806C111.87 15.792 112.174 16.328 112.718 16.744C113.278 17.16 114.006 17.368 114.902 17.368C115.734 17.368 116.39 17.184 116.87 16.816C117.35 16.448 117.59 15.984 117.59 15.424C117.59 14.848 117.334 14.424 116.822 14.152C116.31 13.864 115.518 13.584 114.446 13.312C113.47 13.056 112.67 12.8 112.046 12.544C111.438 12.272 110.91 11.88 110.462 11.368C110.03 10.84 109.814 10.152 109.814 9.304C109.814 8.632 110.014 8.016 110.414 7.456C110.814 6.896 111.382 6.456 112.118 6.136C112.854 5.8 113.694 5.632 114.638 5.632C116.094 5.632 117.27 6 118.166 6.736C119.062 7.472 119.542 8.48 119.606 9.76H117.422C117.374 9.072 117.094 8.52 116.582 8.104C116.086 7.688 115.414 7.48 114.566 7.48C113.782 7.48 113.158 7.648 112.694 7.984C112.23 8.32 111.998 8.76 111.998 9.304C111.998 9.736 112.134 10.096 112.406 10.384C112.694 10.656 113.046 10.88 113.462 11.056C113.894 11.216 114.486 11.4 115.238 11.608C116.182 11.864 116.95 12.12 117.542 12.376C118.134 12.616 118.638 12.984 119.054 13.48C119.486 13.976 119.71 14.624 119.726 15.424C119.726 16.144 119.526 16.792 119.126 17.368C118.726 17.944 118.158 18.4 117.422 18.736C116.702 19.056 115.87 19.216 114.926 19.216ZM134.809 11.92C134.809 12.336 134.785 12.776 134.737 13.24H124.225C124.305 14.536 124.745 15.552 125.545 16.288C126.361 17.008 127.345 17.368 128.497 17.368C129.441 17.368 130.225 17.152 130.849 16.72C131.489 16.272 131.937 15.68 132.193 14.944H134.545C134.193 16.208 133.489 17.24 132.433 18.04C131.377 18.824 130.065 19.216 128.497 19.216C127.249 19.216 126.129 18.936 125.137 18.376C124.161 17.816 123.393 17.024 122.833 16C122.273 14.96 121.993 13.76 121.993 12.4C121.993 11.04 122.265 9.848 122.809 8.824C123.353 7.8 124.113 7.016 125.089 6.472C126.081 5.912 127.217 5.632 128.497 5.632C129.745 5.632 130.849 5.904 131.809 6.448C132.769 6.992 133.505 7.744 134.017 8.704C134.545 9.648 134.809 10.72 134.809 11.92ZM132.553 11.464C132.553 10.632 132.369 9.92 132.001 9.328C131.633 8.72 131.129 8.264 130.489 7.96C129.865 7.64 129.169 7.48 128.401 7.48C127.297 7.48 126.353 7.832 125.569 8.536C124.801 9.24 124.361 10.216 124.249 11.464H132.553ZM130.753 2.128L125.641 4.864V3.232L130.753 0.231998V2.128Z" fill="white"/>
</svg>
